<svg id="Layer_1" data-name="Layer 1" xmlns="http://www.w3.org/2000/svg" viewBox="0 0 400 400"><defs><style>.cls-1{fill:#fff;}</style></defs><path class="cls-1" d="M200.52,89.69a109.21,109.21,0,0,1,27,3.39C287,108.21,322.89,168.9,307.6,228.43c-12.71,49.55-57.9,82.66-107.16,82.66a110.3,110.3,0,0,1-27.55-3.5c-59-15.18-94.95-75.39-80.09-134.23,12.63-50,58.22-83.67,107.72-83.67m0-5h0A116.49,116.49,0,0,0,88,172.14c-15.53,61.49,22,124.43,83.69,140.29a115.5,115.5,0,0,0,28.8,3.66,116.9,116.9,0,0,0,70.31-23.77,113.41,113.41,0,0,0,41.7-62.64,115.82,115.82,0,0,0-111.93-145Z"/></svg>