<svg id="Layer_1" data-name="Layer 1" xmlns="http://www.w3.org/2000/svg" viewBox="0 0 400 400"><defs><style>.cls-1{fill:#7a2917;}</style></defs><path class="cls-1" d="M210.94,138.37a109.76,109.76,0,0,1,27,3.39c59.45,15.14,95.34,75.82,80.06,135.35-12.72,49.55-57.91,82.66-107.17,82.66a110.42,110.42,0,0,1-27.55-3.5c-59-15.18-94.95-75.39-80.08-134.23,12.63-50,58.21-83.67,107.71-83.67m0-5h0a117,117,0,0,0-70.72,24.11,115.88,115.88,0,0,0-41.84,63.34c-15.53,61.5,22,124.43,83.68,140.29a115.62,115.62,0,0,0,28.8,3.66A116.9,116.9,0,0,0,281.17,341a113.41,113.41,0,0,0,41.7-62.64,115.85,115.85,0,0,0-111.93-145Z"/></svg>